<?xml version="1.0" encoding="utf-8"?>
<!-- Generator: Adobe Illustrator 18.0.0, SVG Export Plug-In . SVG Version: 6.00 Build 0)  -->
<!DOCTYPE svg PUBLIC "-//W3C//DTD SVG 1.1//EN" "http://www.w3.org/Graphics/SVG/1.1/DTD/svg11.dtd">
<svg version="1.1" id="Layer_1" xmlns="http://www.w3.org/2000/svg" xmlns:xlink="http://www.w3.org/1999/xlink" x="0px" y="0px"
	 viewBox="0 0 732 742" style="enable-background:new 0 0 732 742;" xml:space="preserve">
<g>
	<g>
		<g>
			<g>
				<g>
					<image style="overflow:visible;" width="732" height="742" xlink:href="869E3695.png" >
					</image>
				</g>
			</g>
		</g>
		<path style="fill:#00FFFF;" d="M708.7,426.3c2.9-18,4.5-36.5,4.5-55.3c0-102.9-45.3-195.2-117-258l0.4-19.6
			c-61.7-50.3-140.4-80.5-226.2-80.5c-36.5,0-71.7,5.5-104.8,15.6L263.8,45C155.4,80.3,70.8,168.2,40,278.4l-18,9
			c-6.4,26.8-9.8,54.8-9.8,83.5c0,53.2,11.6,103.7,32.4,149l16.9,0.3C113.2,627.1,218.7,703,342.8,712.8l8.5,15.8
			c6.3,0.3,12.6,0.5,19,0.5c171.2,0,314.3-120.1,349.7-280.6L708.7,426.3z M33.6,371c0-185.9,150.7-336.7,336.7-336.7
			S706.9,185.1,706.9,371S556.2,707.7,370.2,707.7S33.6,557,33.6,371"/>
		<circle style="fill:none;stroke:#00FFFF;stroke-width:3;stroke-miterlimit:10;" cx="366" cy="371" r="309.1"/>
	</g>
</g>
</svg>
