<?xml version="1.0" encoding="utf-8"?>
<!-- Generator: Adobe Illustrator 18.0.0, SVG Export Plug-In . SVG Version: 6.00 Build 0)  -->
<!DOCTYPE svg PUBLIC "-//W3C//DTD SVG 1.1//EN" "http://www.w3.org/Graphics/SVG/1.1/DTD/svg11.dtd">
<svg version="1.1" id="Layer_1" xmlns="http://www.w3.org/2000/svg" xmlns:xlink="http://www.w3.org/1999/xlink" x="0px" y="0px"
	 viewBox="0 0 734 742" style="enable-background:new 0 0 734 742;" xml:space="preserve">
<pattern  y="742" width="12.3" height="12.3" patternUnits="userSpaceOnUse" id="Unnamed_Pattern" viewBox="0 -12.3 12.3 12.3" style="overflow:visible;">
	<g>
		<polygon style="fill:none;" points="0,-12.3 12.3,-12.3 12.3,0 0,0 		"/>
		<polygon style="fill:#0C5880;" points="12.3,-12.3 0,-12.3 0,0 12.3,0 		"/>
		<g style="opacity:0.2;">
			<g>
				<defs>
					<rect id="SVGID_1_" x="0" y="-12.3" width="12.3" height="12.3"/>
				</defs>
				<clipPath id="SVGID_2_">
					<use xlink:href="#SVGID_1_"  style="overflow:visible;"/>
				</clipPath>
				
					<line style="clip-path:url(#SVGID_2_);fill:none;stroke:#58D9F1;stroke-width:0.5;stroke-miterlimit:10;" x1="6.2" y1="0" x2="6.2" y2="-12.3"/>
				
					<line style="clip-path:url(#SVGID_2_);fill:none;stroke:#58D9F1;stroke-width:0.5;stroke-miterlimit:10;" x1="12.3" y1="-6.2" x2="0" y2="-6.2"/>
			</g>
		</g>
	</g>
</pattern>
<g>
	<g>
		<g style="opacity:0.75;">
			<g>
				<defs>
					<rect id="SVGID_3_" width="734" height="742"/>
				</defs>
				<clipPath id="SVGID_4_">
					<use xlink:href="#SVGID_3_"  style="overflow:visible;"/>
				</clipPath>
				<g style="clip-path:url(#SVGID_4_);">
					<g>
						<defs>
							<rect id="SVGID_5_" width="734" height="742"/>
						</defs>
						<clipPath id="SVGID_6_">
							<use xlink:href="#SVGID_5_"  style="overflow:visible;"/>
						</clipPath>
						<g style="clip-path:url(#SVGID_6_);">
							<defs>
								<rect id="SVGID_7_" width="734" height="742"/>
							</defs>
							<clipPath id="SVGID_8_">
								<use xlink:href="#SVGID_7_"  style="overflow:visible;"/>
							</clipPath>
							<image style="overflow:visible;clip-path:url(#SVGID_8_);" width="734" height="742" xlink:href="5271F632.png" >
							</image>
						</g>
					</g>
				</g>
				<pattern  id="SVGID_9_" xlink:href="#Unnamed_Pattern" patternTransform="matrix(1.1083 0 0 0.6066 2737.71 -8714.5615)">
				</pattern>
				<path style="clip-path:url(#SVGID_4_);fill:url(#SVGID_9_);" d="M709.8,426.3c2.9-18,4.5-36.5,4.5-55.3
					c0-102.9-45.3-195.2-117-258l0.4-19.6c-61.7-50.3-140.4-80.5-226.2-80.5c-36.5,0-71.7,5.5-104.8,15.6L264.8,45
					C156.5,80.3,71.9,168.2,41.1,278.4l-18,9c-6.4,26.8-9.8,54.8-9.8,83.5c0,53.2,11.6,103.7,32.4,149l16.9,0.3
					C114.3,627.1,219.8,703,343.9,712.8l8.5,15.8c6.3,0.3,12.6,0.5,19,0.5c171.2,0,314.3-120.1,349.7-280.6L709.8,426.3z M34.6,371
					c0-185.9,150.7-336.7,336.7-336.7S708,185.1,708,371S557.3,707.7,371.3,707.7S34.6,557,34.6,371"/>
				<path style="clip-path:url(#SVGID_4_);fill:none;stroke:#58D9F1;stroke-miterlimit:10;" d="M709.8,426.3
					c2.9-18,4.5-36.5,4.5-55.3c0-102.9-45.3-195.2-117-258l0.4-19.6c-61.7-50.3-140.4-80.5-226.2-80.5c-36.5,0-71.7,5.5-104.8,15.6
					L264.8,45C156.5,80.3,71.9,168.2,41.1,278.4l-18,9c-6.4,26.8-9.8,54.8-9.8,83.5c0,53.2,11.6,103.7,32.4,149l16.9,0.3
					C114.3,627.1,219.8,703,343.9,712.8l8.5,15.8c6.3,0.3,12.6,0.5,19,0.5c171.2,0,314.3-120.1,349.7-280.6L709.8,426.3z M34.6,371
					c0-185.9,150.7-336.7,336.7-336.7S708,185.1,708,371S557.3,707.7,371.3,707.7S34.6,557,34.6,371z"/>
			</g>
		</g>
	</g>
</g>
</svg>
