<svg xmlns="http://www.w3.org/2000/svg" width="120.8" height="122.6" viewBox="0 0 120.8 122.6">
	<path fill="red" d="M120.6,40.4c0.1-0.1,0.1-0.2,0.1-0.3c0-0.1,0.1-0.1,0.2-0.2c0-0.1,0-0.2,0-0.3
		c0-0.2,0.1-0.3,0.1-0.5s0-0.3-0.1-0.5c0-0.1,0-0.2,0-0.3c0-0.1-0.1-0.1-0.2-0.2c0-0.1,0-0.2-0.1-0.3L101,13.2
		c-0.1-0.1-0.2-0.1-0.2-0.2c-0.1-0.1-0.2-0.1-0.2-0.2c-0.1-0.1-0.3-0.1-0.5-0.2c-0.1,0-0.2-0.1-0.3-0.1H60.5H21.3
		c-0.3,0-0.6,0.1-0.8,0.3c-0.1,0-0.1,0.1-0.2,0.2c-0.1,0.1-0.2,0.1-0.3,0.2L0.4,37.9c-0.1,0.1-0.1,0.2-0.1,0.3
		c0,0.1-0.1,0.1-0.2,0.2c0,0.1,0,0.2,0,0.3C0,38.8,0,39,0,39.2s0,0.3,0.1,0.5c0,0.1,0,0.2,0,0.3c0,0.1,0.1,0.1,0.2,0.2
		c0,0.1,0,0.2,0.1,0.3l58.8,74.1c0.1,0.1,0.1,0.1,0.2,0.2c0.1,0.1,0.1,0.1,0.2,0.1c0.3,0.2,0.6,0.3,0.9,0.3c0.3,0,0.6-0.1,0.9-0.3
		c0.1,0,0.1-0.1,0.2-0.1c0.1-0.1,0.1-0.1,0.2-0.2L120.6,40.4z M26.7,16.1h5.8l-12,21.1L11,37.3L26.7,16.1z M20.5,40.7l36.2,65
		L11,40.8L20.5,40.7z"/>
</svg>
