<?xml version="1.0" encoding="utf-8"?>
<!-- Generator: Adobe Illustrator 18.0.0, SVG Export Plug-In . SVG Version: 6.00 Build 0)  -->
<!DOCTYPE svg PUBLIC "-//W3C//DTD SVG 1.1//EN" "http://www.w3.org/Graphics/SVG/1.1/DTD/svg11.dtd">
<svg version="1.1" id="Layer_1" xmlns="http://www.w3.org/2000/svg" xmlns:xlink="http://www.w3.org/1999/xlink" x="0px" y="0px"
	 viewBox="0 0 145 163" style="enable-background:new 0 0 145 163;" xml:space="preserve">
<g>
	<defs>
		<rect id="SVGID_1_" width="145" height="163"/>
	</defs>
	<clipPath id="SVGID_2_">
		<use xlink:href="#SVGID_1_"  style="overflow:visible;"/>
	</clipPath>
	<g style="clip-path:url(#SVGID_2_);">
		<defs>
			<rect id="SVGID_3_" width="145" height="163"/>
		</defs>
		<clipPath id="SVGID_4_">
			<use xlink:href="#SVGID_3_"  style="overflow:visible;"/>
		</clipPath>
		<g style="clip-path:url(#SVGID_4_);">
			<g>
				<defs>
					<rect id="SVGID_5_" width="145" height="163"/>
				</defs>
				<clipPath id="SVGID_6_">
					<use xlink:href="#SVGID_5_"  style="overflow:visible;"/>
				</clipPath>
				<g style="clip-path:url(#SVGID_6_);">
					<defs>
						<rect id="SVGID_7_" width="145" height="163"/>
					</defs>
					<clipPath id="SVGID_8_">
						<use xlink:href="#SVGID_7_"  style="overflow:visible;"/>
					</clipPath>
					<image style="overflow:visible;clip-path:url(#SVGID_8_);" width="145" height="163" xlink:href="689EC51B.png" >
					</image>
				</g>
			</g>
		</g>
		<path style="clip-path:url(#SVGID_4_);fill:#FFFFFF;" d="M36.5,39.7c-0.1,0-0.1,0-0.2,0c-0.2-0.1-0.3-0.3-0.2-0.6
			c1.9-4.8,9.5-20.8,27.1-25.5c10.6-2.8,19.2-0.7,19.3-0.6c0,0,0.1,0,0.1,0.1l3.1,2.1c0.5-0.4,1.5-0.9,2.5-0.5
			c5,2.2,10.4,8.6,15.5,18.4c1.1,2.1,2.2,4.4,3,6.3l-1.2-0.4c-0.8-1.7-1.6-3.5-2.6-5.5c-5-9.7-10.3-15.9-15.1-18
			C87,15.1,86,16,86,16c-0.2,0.1-0.4,0.2-0.6,0l-3.4-2.3c-0.8-0.2-8.9-2-18.7,0.6c-17.2,4.6-24.6,20.3-26.5,25
			C36.8,39.6,36.6,39.7,36.5,39.7"/>
		<path style="clip-path:url(#SVGID_4_);fill:none;stroke:#009AFF;stroke-width:0.1;stroke-miterlimit:10;" d="M36.5,39.7
			c-0.1,0-0.1,0-0.2,0c-0.2-0.1-0.3-0.3-0.2-0.6c1.9-4.8,9.5-20.8,27.1-25.5c10.6-2.8,19.2-0.7,19.3-0.6c0,0,0.1,0,0.1,0.1l3.1,2.1
			c0.5-0.4,1.5-0.9,2.5-0.5c5,2.2,10.4,8.6,15.5,18.4c1.1,2.1,2.2,4.4,3,6.3l-1.2-0.4c-0.8-1.7-1.6-3.5-2.6-5.5
			c-5-9.7-10.3-15.9-15.1-18C87,15.1,86,16,86,16c-0.2,0.1-0.4,0.2-0.6,0l-3.4-2.3c-0.8-0.2-8.9-2-18.7,0.6
			c-17.2,4.6-24.6,20.3-26.5,25C36.8,39.6,36.6,39.7,36.5,39.7z"/>
		<path style="clip-path:url(#SVGID_4_);fill:#FFFFFF;" d="M13.6,136.2c-0.1,0-0.1,0-0.2,0c-0.2-0.1-0.3-0.4-0.2-0.6
			c1.5-2.9,8.6-5.4,16.3-8c3.2-1.1,6.5-2.2,9.1-3.4c3.1-1.3,12.4-5.2,13.2-6.7c4.7-8.5,1.6-23.4,1.6-23.6c-0.1-0.2,0.1-0.5,0.3-0.5
			c0.2,0,0.5,0.1,0.5,0.3c0.1,0.6,3.2,15.4-1.7,24.2c-0.7,1.2-4.8,3.4-13.7,7.1c-2.7,1.1-6,2.3-9.2,3.4c-7.1,2.5-14.5,5-15.7,7.6
			C13.9,136.1,13.8,136.2,13.6,136.2"/>
		<path style="clip-path:url(#SVGID_4_);fill:none;stroke:#009AFF;stroke-width:0.1;stroke-miterlimit:10;" d="M13.6,136.2
			c-0.1,0-0.1,0-0.2,0c-0.2-0.1-0.3-0.4-0.2-0.6c1.5-2.9,8.6-5.4,16.3-8c3.2-1.1,6.5-2.2,9.1-3.4c3.1-1.3,12.4-5.2,13.2-6.7
			c4.7-8.5,1.6-23.4,1.6-23.6c-0.1-0.2,0.1-0.5,0.3-0.5c0.2,0,0.5,0.1,0.5,0.3c0.1,0.6,3.2,15.4-1.7,24.2c-0.7,1.2-4.8,3.4-13.7,7.1
			c-2.7,1.1-6,2.3-9.2,3.4c-7.1,2.5-14.5,5-15.7,7.6C13.9,136.1,13.8,136.2,13.6,136.2z"/>
		<path style="clip-path:url(#SVGID_4_);fill:#FFFFFF;" d="M132,136.2c-0.2,0-0.3-0.1-0.4-0.2c-1.3-2.5-8.5-5.1-16.5-7.7
			c-4-1.3-7.2-2.6-10.5-3.9c-7.9-3.2-11.7-5.1-12.9-6.5c-4.9-5.8-2.8-22.3-2.7-23c0-0.2,0.3-0.4,0.5-0.4c0.2,0,0.4,0.3,0.4,0.5
			c0,0.2-2.2,16.8,2.5,22.3c1.4,1.6,7.8,4.4,12.6,6.3c3.2,1.3,6.4,2.6,10.4,3.9c8.5,2.7,15.5,5.3,17,8.1c0.1,0.2,0,0.5-0.2,0.6
			C132.1,136.2,132.1,136.2,132,136.2"/>
		<path style="clip-path:url(#SVGID_4_);fill:none;stroke:#009AFF;stroke-width:0.1;stroke-miterlimit:10;" d="M132,136.2
			c-0.2,0-0.3-0.1-0.4-0.2c-1.3-2.5-8.5-5.1-16.5-7.7c-4-1.3-7.2-2.6-10.5-3.9c-7.9-3.2-11.7-5.1-12.9-6.5c-4.9-5.8-2.8-22.3-2.7-23
			c0-0.2,0.3-0.4,0.5-0.4c0.2,0,0.4,0.3,0.4,0.5c0,0.2-2.2,16.8,2.5,22.3c1.4,1.6,7.8,4.4,12.6,6.3c3.2,1.3,6.4,2.6,10.4,3.9
			c8.5,2.7,15.5,5.3,17,8.1c0.1,0.2,0,0.5-0.2,0.6C132.1,136.2,132.1,136.2,132,136.2z"/>
		<path style="clip-path:url(#SVGID_4_);fill:#FFFFFF;" d="M73,103.5c-0.1,0-0.1,0-0.2,0C61,103.3,50.3,91.4,48.8,88.8
			c-0.8-1.4-1.9-3.7-3-7.8c-0.8-2.8-1.7-12.6-1.8-13c0-0.2,0.2-0.5,0.4-0.5c0.2,0,0.5,0.2,0.5,0.4c0,0.1,1,10.1,1.7,12.9
			c1.1,4,2.2,6.3,2.9,7.6c1.3,2.4,11.9,14.1,23.2,14.2c10.6,0.1,20.1-11.2,21.3-14.2c1.8-4.4,3.2-9.1,4-12.8
			c0.2-0.9,0.5-2.6,0.5-2.6l0.8,0.2c0,0-0.2,1.6-0.4,2.6c-0.8,3.7-2.2,8.5-4,12.9C93.9,91.3,84.6,103.5,73,103.5"/>
		<path style="clip-path:url(#SVGID_4_);fill:none;stroke:#009AFF;stroke-width:0.1;stroke-miterlimit:10;" d="M73,103.5
			c-0.1,0-0.1,0-0.2,0C61,103.3,50.3,91.4,48.8,88.8c-0.8-1.4-1.9-3.7-3-7.8c-0.8-2.8-1.7-12.6-1.8-13c0-0.2,0.2-0.5,0.4-0.5
			c0.2,0,0.5,0.2,0.5,0.4c0,0.1,1,10.1,1.7,12.9c1.1,4,2.2,6.3,2.9,7.6c1.3,2.4,11.9,14.1,23.2,14.2c10.6,0.1,20.1-11.2,21.3-14.2
			c1.8-4.4,3.2-9.1,4-12.8c0.2-0.9,0.5-2.6,0.5-2.6l0.8,0.2c0,0-0.2,1.6-0.4,2.6c-0.8,3.7-2.2,8.5-4,12.9
			C93.9,91.3,84.6,103.5,73,103.5z"/>
		<path style="clip-path:url(#SVGID_4_);fill:#FFFFFF;" d="M98.5,73l0.9,0.1c0,0-0.3,1.8-0.5,2.7"/>
		<path style="clip-path:url(#SVGID_4_);fill:none;stroke:#009AFF;stroke-width:0.1;stroke-miterlimit:10;" d="M98.5,73l0.9,0.1
			c0,0-0.3,1.8-0.5,2.7"/>
		<path style="clip-path:url(#SVGID_4_);fill:#FFFFFF;" d="M46.2,51.5c-0.1,0-0.2,0-0.2-0.1c-0.2-0.1-0.3-0.4-0.1-0.6
			c5-8.2,12.1-13,18.5-16.6c6.9-3.9,22.6-7.4,24.7-4.8c2.3,2.8,4.2,6.1,5.5,9.8l-0.8,0.3c-1.3-3.6-3.1-6.8-5.3-9.5
			c-1.6-1.9-16.2,0.8-23.6,5c-6.3,3.6-13.3,8.3-18.2,16.3C46.5,51.5,46.3,51.5,46.2,51.5"/>
		<path style="clip-path:url(#SVGID_4_);fill:none;stroke:#009AFF;stroke-width:0.1;stroke-miterlimit:10;" d="M46.2,51.5
			c-0.1,0-0.2,0-0.2-0.1c-0.2-0.1-0.3-0.4-0.1-0.6c5-8.2,12.1-13,18.5-16.6c6.9-3.9,22.6-7.4,24.7-4.8c2.3,2.8,4.2,6.1,5.5,9.8
			l-0.8,0.3c-1.3-3.6-3.1-6.8-5.3-9.5c-1.6-1.9-16.2,0.8-23.6,5c-6.3,3.6-13.3,8.3-18.2,16.3C46.5,51.5,46.3,51.5,46.2,51.5z"/>
		<path style="clip-path:url(#SVGID_4_);fill:#FFFFFF;" d="M48.5,69.5c-6.5,0-10.5-0.6-13.5-2.8c-1.6-1.2-2.6-3.1-2.7-5.5
			c-0.2-2.7,0.8-5.5,2.5-7c3.1-2.8,16.3-7.3,38.6-7.3c3.9,0,7.9,0.2,11.4,0.5L83.7,50c-3.4-0.3-6.5-0.4-10.3-0.4
			c-22.1,0-34.5,4.5-36.8,6.6c-1.1,1-1.7,3-1.6,4.9c0.1,0.9,0.3,2.6,1.6,3.5c2.7,2,7,2.5,17.5,2.1c4.5-0.2,11.6-0.3,19.7-0.3
			c5.4,0,9.3,0,12.7,0l2.7,2.8c-3.4-0.1-10-0.1-15.4-0.1c-8,0-15.1,0.1-19.6,0.3C52.1,69.4,50.2,69.5,48.5,69.5"/>
		<path style="clip-path:url(#SVGID_4_);fill:none;stroke:#009AFF;stroke-width:0.1;stroke-miterlimit:10;" d="M48.5,69.5
			c-6.5,0-10.5-0.6-13.5-2.8c-1.6-1.2-2.6-3.1-2.7-5.5c-0.2-2.7,0.8-5.5,2.5-7c3.1-2.8,16.3-7.3,38.6-7.3c3.9,0,7.9,0.2,11.4,0.5
			L83.7,50c-3.4-0.3-6.5-0.4-10.3-0.4c-22.1,0-34.5,4.5-36.8,6.6c-1.1,1-1.7,3-1.6,4.9c0.1,0.9,0.3,2.6,1.6,3.5
			c2.7,2,7,2.5,17.5,2.1c4.5-0.2,11.6-0.3,19.7-0.3c5.4,0,9.3,0,12.7,0l2.7,2.8c-3.4-0.1-10-0.1-15.4-0.1c-8,0-15.1,0.1-19.6,0.3
			C52.1,69.4,50.2,69.5,48.5,69.5z"/>
		<path style="clip-path:url(#SVGID_4_);fill:#FFFFFF;" d="M72.8,90.5c-0.1,0-0.1,0-0.2,0c-3.7,0-5.1-1.5-5.1-1.6
			c-0.2-0.2-0.1-0.5,0-0.6c0.2-0.2,0.5-0.1,0.6,0c0,0,1.2,1.3,4.5,1.3c3.3,0,5-1.1,5-1.1c0.2-0.1,0.5-0.1,0.6,0.1s0.1,0.5-0.1,0.6
			C78,89.3,76.3,90.5,72.8,90.5"/>
		<path style="clip-path:url(#SVGID_4_);fill:none;stroke:#009AFF;stroke-width:0.1;stroke-miterlimit:10;" d="M72.8,90.5
			c-0.1,0-0.1,0-0.2,0c-3.7,0-5.1-1.5-5.1-1.6c-0.2-0.2-0.1-0.5,0-0.6c0.2-0.2,0.5-0.1,0.6,0c0,0,1.2,1.3,4.5,1.3c3.3,0,5-1.1,5-1.1
			c0.2-0.1,0.5-0.1,0.6,0.1s0.1,0.5-0.1,0.6C78,89.3,76.3,90.5,72.8,90.5z"/>
		<path style="clip-path:url(#SVGID_4_);fill:#FFFFFF;" d="M65.4,87c-0.2,0-0.7-0.2-0.7-0.5c0-0.2,0.2-0.3,0.5-0.3
			c0.6,0,3-1.2,4.5-2.1c1-0.4,1.9-0.2,2.7-0.1c0.4,0.1,0.7,0.1,1,0.1c0.3,0,0.7-0.1,1.1-0.1c0.7-0.1,1.5-0.2,2.2,0.1
			c1.3,0.8,3.6,2,4.4,2c0.2,0,0.4,0.1,0.4,0.3c0,0.2-0.3,0.5-0.5,0.5c-1.3,0-4.3-1.8-4.6-2c-0.4-0.2-1-0.1-1.7,0
			c-0.4,0.1-0.8,0.1-1.3,0.1c-0.4,0-0.8-0.1-1.1-0.1c-0.7-0.1-1.5-0.2-2.2,0C69.5,85.3,66.5,87,65.4,87"/>
		<path style="clip-path:url(#SVGID_4_);fill:none;stroke:#009AFF;stroke-width:0.1;stroke-miterlimit:10;" d="M65.4,87
			c-0.2,0-0.7-0.2-0.7-0.5c0-0.2,0.2-0.3,0.5-0.3c0.6,0,3-1.2,4.5-2.1c1-0.4,1.9-0.2,2.7-0.1c0.4,0.1,0.7,0.1,1,0.1
			c0.3,0,0.7-0.1,1.1-0.1c0.7-0.1,1.5-0.2,2.2,0.1c1.3,0.8,3.6,2,4.4,2c0.2,0,0.4,0.1,0.4,0.3c0,0.2-0.3,0.5-0.5,0.5
			c-1.3,0-4.3-1.8-4.6-2c-0.4-0.2-1-0.1-1.7,0c-0.4,0.1-0.8,0.1-1.3,0.1c-0.4,0-0.8-0.1-1.1-0.1c-0.7-0.1-1.5-0.2-2.2,0
			C69.5,85.3,66.5,87,65.4,87z"/>
		<path style="clip-path:url(#SVGID_4_);fill:#FFFFFF;" d="M73.6,76.8c0,0-0.1,0-0.1,0c-0.8,0-1.3-0.3-1.7-0.5
			c-0.3-0.2-0.6-0.3-0.9-0.3c-1.9-0.1-2.1-1-2.1-1.2c0-0.2,0-0.4,0.3-0.5c0.2,0,0.5,0.1,0.5,0.3c0,0.1,0.4,0.4,1.4,0.5
			c0.5,0,0.9,0.2,1.2,0.4c0.4,0.2,0.8,0.4,1.4,0.4c0.4,0,0.8-0.2,1.2-0.3c0.4-0.2,0.8-0.4,1.3-0.4c0.1,0,0.1,0,0.2,0
			c0.9,0,1.3-0.1,1.3-0.2c0.1-0.1,0.3-0.2,0.5-0.1c0.2,0.1,0.3,0.3,0.2,0.6c-0.2,0.4-0.9,0.7-2.2,0.6c-0.3,0-0.6,0.1-1,0.3
			C74.7,76.6,74.2,76.8,73.6,76.8"/>
		<path style="clip-path:url(#SVGID_4_);fill:none;stroke:#009AFF;stroke-width:0.1;stroke-miterlimit:10;" d="M73.6,76.8
			c0,0-0.1,0-0.1,0c-0.8,0-1.3-0.3-1.7-0.5c-0.3-0.2-0.6-0.3-0.9-0.3c-1.9-0.1-2.1-1-2.1-1.2c0-0.2,0-0.4,0.3-0.5
			c0.2,0,0.5,0.1,0.5,0.3c0,0.1,0.4,0.4,1.4,0.5c0.5,0,0.9,0.2,1.2,0.4c0.4,0.2,0.8,0.4,1.4,0.4c0.4,0,0.8-0.2,1.2-0.3
			c0.4-0.2,0.8-0.4,1.3-0.4c0.1,0,0.1,0,0.2,0c0.9,0,1.3-0.1,1.3-0.2c0.1-0.1,0.3-0.2,0.5-0.1c0.2,0.1,0.3,0.3,0.2,0.6
			c-0.2,0.4-0.9,0.7-2.2,0.6c-0.3,0-0.6,0.1-1,0.3C74.7,76.6,74.2,76.8,73.6,76.8z"/>
		<path style="clip-path:url(#SVGID_4_);fill:#FFFFFF;" d="M49.4,113c-0.1,0-0.3-0.1-0.4-0.2c-0.1-0.1-5.4-7.1-8.3-11.7
			c-3.3-5.2-7-12.2-8.8-29.3C30.6,59,36,39.3,36,39.1c0.1-0.2,0.3-0.4,0.5-0.3c0.2,0.1,0.4,0.3,0.3,0.5c-0.1,0.2-5.3,19.8-4,32.3
			c1.7,16.9,5.4,23.8,8.7,28.9c1.9,3.1,5,7.2,6.8,9.7c-1.5-5.1-4.7-17.1-5.2-25.3c-0.6-10.5,0.2-17,0.2-17.1c0-0.2,0.3-0.4,0.5-0.4
			c0.2,0,0.4,0.3,0.4,0.5c0,0.1-0.8,6.5-0.2,16.9c0.6,10.4,5.8,27.3,5.9,27.4c0.1,0.2,0,0.4-0.2,0.5C49.5,113,49.5,113,49.4,113"/>
		<path style="clip-path:url(#SVGID_4_);fill:none;stroke:#009AFF;stroke-width:0.1;stroke-miterlimit:10;" d="M49.4,113
			c-0.1,0-0.3-0.1-0.4-0.2c-0.1-0.1-5.4-7.1-8.3-11.7c-3.3-5.2-7-12.2-8.8-29.3C30.6,59,36,39.3,36,39.1c0.1-0.2,0.3-0.4,0.5-0.3
			c0.2,0.1,0.4,0.3,0.3,0.5c-0.1,0.2-5.3,19.8-4,32.3c1.7,16.9,5.4,23.8,8.7,28.9c1.9,3.1,5,7.2,6.8,9.7c-1.5-5.1-4.7-17.1-5.2-25.3
			c-0.6-10.5,0.2-17,0.2-17.1c0-0.2,0.3-0.4,0.5-0.4c0.2,0,0.4,0.3,0.4,0.5c0,0.1-0.8,6.5-0.2,16.9c0.6,10.4,5.8,27.3,5.9,27.4
			c0.1,0.2,0,0.4-0.2,0.5C49.5,113,49.5,113,49.4,113z"/>
		<path style="clip-path:url(#SVGID_4_);fill:#FFFFFF;" d="M94.4,113c-0.1,0-0.1,0-0.2,0c-0.2-0.1-0.3-0.3-0.3-0.5
			c0-0.1,1.7-9.5,2.4-15.6c0.7-6.1,2.2-23.6,2.2-23.8l0.9,0.1c0,0.2-1.5,17.7-2.2,23.8c-0.5,4.2-1.4,9.8-1.9,13.1
			c2.4-4.5,7.6-14.6,9.8-22.3c1.6-5.6,2.8-12,3.6-16.6l1-0.6c-0.8,4.7-2.1,11.8-3.7,17.4c-2.8,10.2-11,24.6-11.1,24.8
			C94.7,112.9,94.5,113,94.4,113"/>
		<path style="clip-path:url(#SVGID_4_);fill:none;stroke:#009AFF;stroke-width:0.1;stroke-miterlimit:10;" d="M94.4,113
			c-0.1,0-0.1,0-0.2,0c-0.2-0.1-0.3-0.3-0.3-0.5c0-0.1,1.7-9.5,2.4-15.6c0.7-6.1,2.2-23.6,2.2-23.8l0.9,0.1c0,0.2-1.5,17.7-2.2,23.8
			c-0.5,4.2-1.4,9.8-1.9,13.1c2.4-4.5,7.6-14.6,9.8-22.3c1.6-5.6,2.8-12,3.6-16.6l1-0.6c-0.8,4.7-2.1,11.8-3.7,17.4
			c-2.8,10.2-11,24.6-11.1,24.8C94.7,112.9,94.5,113,94.4,113z"/>
		<path style="clip-path:url(#SVGID_4_);fill:#FFFFFF;" d="M47.4,105.8C47.4,105.8,47.4,105.8,47.4,105.8c-0.2,0-0.2-0.2-0.2-0.3
			c0-0.1,1.6-5.1,6.9-9.7c0.1-0.1,0.2-0.1,0.3,0c0.1,0.1,0.1,0.2,0,0.3c-5.1,4.5-6.7,9.5-6.7,9.5C47.6,105.7,47.5,105.8,47.4,105.8"
			/>
		<path style="clip-path:url(#SVGID_4_);fill:none;stroke:#009AFF;stroke-width:0.1;stroke-miterlimit:10;" d="M47.4,105.8
			C47.4,105.8,47.4,105.8,47.4,105.8c-0.2,0-0.2-0.2-0.2-0.3c0-0.1,1.6-5.1,6.9-9.7c0.1-0.1,0.2-0.1,0.3,0c0.1,0.1,0.1,0.2,0,0.3
			c-5.1,4.5-6.7,9.5-6.7,9.5C47.6,105.7,47.5,105.8,47.4,105.8z"/>
		<path style="clip-path:url(#SVGID_4_);fill:#FFFFFF;" d="M95.5,105.8c-0.1,0-0.2,0-0.2-0.1c0-0.1-3.7-7.1-6.1-9.3
			c-0.1-0.1-0.1-0.2,0-0.3c0.1-0.1,0.2-0.1,0.3,0c2.5,2.3,6.1,9.1,6.2,9.4c0.1,0.1,0,0.2-0.1,0.3C95.6,105.8,95.6,105.8,95.5,105.8"
			/>
		<path style="clip-path:url(#SVGID_4_);fill:none;stroke:#009AFF;stroke-width:0.1;stroke-miterlimit:10;" d="M95.5,105.8
			c-0.1,0-0.2,0-0.2-0.1c0-0.1-3.7-7.1-6.1-9.3c-0.1-0.1-0.1-0.2,0-0.3c0.1-0.1,0.2-0.1,0.3,0c2.5,2.3,6.1,9.1,6.2,9.4
			c0.1,0.1,0,0.2-0.1,0.3C95.6,105.8,95.6,105.8,95.5,105.8z"/>
		<path style="clip-path:url(#SVGID_4_);fill:#FFFFFF;" d="M100.2,63.4l-6.1-2.6v-8.5l1.4-0.2l0-2.9l5.6-2.5v15.6l-0.9-0.3V63.4z
			 M95,60.2l4.3,1.8v-1.4l0.9,0.3v-13l-3.8,1.7l0,3.1L95,53.1V60.2z"/>
		<path style="clip-path:url(#SVGID_4_);fill:none;stroke:#009AFF;stroke-width:0.1;stroke-miterlimit:10;" d="M100.2,63.4l-6.1-2.6
			v-8.5l1.4-0.2l0-2.9l5.6-2.5v15.6l-0.9-0.3V63.4z M95,60.2l4.3,1.8v-1.4l0.9,0.3v-13l-3.8,1.7l0,3.1L95,53.1V60.2z"/>
		<path style="clip-path:url(#SVGID_4_);fill:#FFFFFF;" d="M100.3,64.7V49l0.9,0.3v-1.5l6,2.6V59l-1.4,0.2l0,2.9L100.3,64.7z
			 M101.2,50.3v13l3.8-1.7l0-3.1l1.4-0.2v-7.1l-4.2-1.8v1.4L101.2,50.3z"/>
		<path style="clip-path:url(#SVGID_4_);fill:none;stroke:#009AFF;stroke-width:0.1;stroke-miterlimit:10;" d="M100.3,64.7V49
			l0.9,0.3v-1.5l6,2.6V59l-1.4,0.2l0,2.9L100.3,64.7z M101.2,50.3v13l3.8-1.7l0-3.1l1.4-0.2v-7.1l-4.2-1.8v1.4L101.2,50.3z"/>
		<path style="clip-path:url(#SVGID_4_);fill:#FFFFFF;" d="M94.9,61.9l-3.2-1.5v-9.5l3.2-1.5V61.9z M92.6,59.8l1.4,0.7v-9.7
			l-1.4,0.7V59.8z"/>
		<path style="clip-path:url(#SVGID_4_);fill:none;stroke:#009AFF;stroke-width:0.1;stroke-miterlimit:10;" d="M94.9,61.9l-3.2-1.5
			v-9.5l3.2-1.5V61.9z M92.6,59.8l1.4,0.7v-9.7l-1.4,0.7V59.8z"/>
		<path style="clip-path:url(#SVGID_4_);fill:#FFFFFF;" d="M106.4,61.9V49.4l3.2,1.5v9.5L106.4,61.9z M107.3,50.8v9.7l1.4-0.7v-8.3
			L107.3,50.8z"/>
		<path style="clip-path:url(#SVGID_4_);fill:none;stroke:#009AFF;stroke-width:0.1;stroke-miterlimit:10;" d="M106.4,61.9V49.4
			l3.2,1.5v9.5L106.4,61.9z M107.3,50.8v9.7l1.4-0.7v-8.3L107.3,50.8z"/>
		<path style="clip-path:url(#SVGID_4_);fill:#FFFFFF;" d="M88.9,60.4c-0.1,0-0.1,0-0.1-0.1c-2.4-5.9,0-12.6,5.5-15.7
			c5.5-3.1,12.5-1.6,16.3,3.6c0,0.1,0,0.1,0,0.2c-0.1,0-0.1,0-0.2,0c-3.7-5-10.5-6.5-15.9-3.5c-5.4,3-7.8,9.6-5.4,15.4
			C89,60.3,89,60.4,88.9,60.4C88.9,60.4,88.9,60.4,88.9,60.4"/>
		<path style="clip-path:url(#SVGID_4_);fill:none;stroke:#009AFF;stroke-width:0.1;stroke-miterlimit:10;" d="M88.9,60.4
			c-0.1,0-0.1,0-0.1-0.1c-2.4-5.9,0-12.6,5.5-15.7c5.5-3.1,12.5-1.6,16.3,3.6c0,0.1,0,0.1,0,0.2c-0.1,0-0.1,0-0.2,0
			c-3.7-5-10.5-6.5-15.9-3.5c-5.4,3-7.8,9.6-5.4,15.4C89,60.3,89,60.4,88.9,60.4C88.9,60.4,88.9,60.4,88.9,60.4z"/>
		<path style="clip-path:url(#SVGID_4_);fill:#FFFFFF;" d="M100.4,68.2c-3.9,0-7.7-1.8-10.2-5.1c0-0.1,0-0.1,0-0.2
			c0.1,0,0.1,0,0.2,0c3.7,5,10.5,6.5,15.9,3.5c5.4-3,7.8-9.6,5.4-15.4c0-0.1,0-0.1,0.1-0.2c0.1,0,0.1,0,0.2,0.1
			c2.4,5.9,0,12.6-5.6,15.7C104.6,67.7,102.5,68.2,100.4,68.2"/>
		<path style="clip-path:url(#SVGID_4_);fill:none;stroke:#009AFF;stroke-width:0.1;stroke-miterlimit:10;" d="M100.4,68.2
			c-3.9,0-7.7-1.8-10.2-5.1c0-0.1,0-0.1,0-0.2c0.1,0,0.1,0,0.2,0c3.7,5,10.5,6.5,15.9,3.5c5.4-3,7.8-9.6,5.4-15.4
			c0-0.1,0-0.1,0.1-0.2c0.1,0,0.1,0,0.2,0.1c2.4,5.9,0,12.6-5.6,15.7C104.6,67.7,102.5,68.2,100.4,68.2z"/>
		<path style="clip-path:url(#SVGID_4_);fill:#FFFFFF;" d="M113.8,67C113.8,67,113.8,67,113.8,67c-0.1-0.1-0.1-0.2-0.1-0.2
			c5.8-6.9,5.4-17-1-23.4c-6.4-6.4-16.5-6.9-23.4-1c-0.1,0-0.1,0-0.2,0c0-0.1,0-0.1,0-0.2c3.4-2.8,7.6-4.3,12-4.1
			c4.4,0.2,8.6,2,11.7,5.1c3.1,3.1,5,7.3,5.1,11.7c0.2,4.4-1.3,8.7-4.1,12C113.9,67,113.9,67,113.8,67"/>
		<path style="clip-path:url(#SVGID_4_);fill:none;stroke:#009AFF;stroke-width:0.1;stroke-miterlimit:10;" d="M113.8,67
			C113.8,67,113.8,67,113.8,67c-0.1-0.1-0.1-0.2-0.1-0.2c5.8-6.9,5.4-17-1-23.4c-6.4-6.4-16.5-6.9-23.4-1c-0.1,0-0.1,0-0.2,0
			c0-0.1,0-0.1,0-0.2c3.4-2.8,7.6-4.3,12-4.1c4.4,0.2,8.6,2,11.7,5.1c3.1,3.1,5,7.3,5.1,11.7c0.2,4.4-1.3,8.7-4.1,12
			C113.9,67,113.9,67,113.8,67z"/>
		<path style="clip-path:url(#SVGID_4_);fill:#FFFFFF;" d="M100.4,73.3c-0.2,0-0.5,0-0.7,0c-4.4-0.2-8.6-2-11.7-5.1
			c-3.1-3.1-5-7.3-5.1-11.7c-0.2-4.4,1.3-8.7,4.1-12c0.1-0.1,0.1-0.1,0.2,0c0.1,0,0.1,0.1,0,0.2c-5.8,6.9-5.4,17,1,23.4
			c6.4,6.4,16.5,6.9,23.4,1c0.1,0,0.1,0,0.2,0c0,0.1,0,0.1,0,0.2C108.5,71.8,104.6,73.3,100.4,73.3"/>
		<path style="clip-path:url(#SVGID_4_);fill:none;stroke:#009AFF;stroke-width:0.1;stroke-miterlimit:10;" d="M100.4,73.3
			c-0.2,0-0.5,0-0.7,0c-4.4-0.2-8.6-2-11.7-5.1c-3.1-3.1-5-7.3-5.1-11.7c-0.2-4.4,1.3-8.7,4.1-12c0.1-0.1,0.1-0.1,0.2,0
			c0.1,0,0.1,0.1,0,0.2c-5.8,6.9-5.4,17,1,23.4c6.4,6.4,16.5,6.9,23.4,1c0.1,0,0.1,0,0.2,0c0,0.1,0,0.1,0,0.2
			C108.5,71.8,104.6,73.3,100.4,73.3z"/>
		<path style="clip-path:url(#SVGID_4_);fill:#FFFFFF;" d="M52.5,117.4c1.3,0.9,7.8,4.6,20,4.6c11.9,0,18.4-3.3,19.9-4.1l0.6,0.7
			c-0.3,0.2-6.4,4.4-20.5,4.4c-14.1,0-20.2-4.6-20.5-4.8L52.5,117.4z M54,113.5c0.1,0,6,3.3,18.8,3.3c12.8,0,17.4-2.9,17.4-2.9
			l0.3,0.9c-1.4,0.7-6.6,2.9-17.7,2.9c-11.2,0-17.5-2.6-19.1-3.3L54,113.5z"/>
		<path style="clip-path:url(#SVGID_4_);fill:none;stroke:#009AFF;stroke-width:0.1;stroke-miterlimit:10;" d="M52.5,117.4
			c1.3,0.9,7.8,4.6,20,4.6c11.9,0,18.4-3.3,19.9-4.1l0.6,0.7c-0.3,0.2-6.4,4.4-20.5,4.4c-14.1,0-20.2-4.6-20.5-4.8L52.5,117.4z
			 M54,113.5c0.1,0,6,3.3,18.8,3.3c12.8,0,17.4-2.9,17.4-2.9l0.3,0.9c-1.4,0.7-6.6,2.9-17.7,2.9c-11.2,0-17.5-2.6-19.1-3.3L54,113.5
			z"/>
		<polygon style="clip-path:url(#SVGID_4_);fill:#FFFFFF;" points="99.5,61.7 95.5,59.8 95.5,52.5 96.4,52.5 96.4,59.3 99.9,60.9 		
			"/>
		<polygon style="clip-path:url(#SVGID_4_);fill:none;stroke:#009AFF;stroke-width:0.1;stroke-miterlimit:10;" points="99.5,61.7 
			95.5,59.8 95.5,52.5 96.4,52.5 96.4,59.3 99.9,60.9 		"/>
		<polygon style="clip-path:url(#SVGID_4_);fill:#FFFFFF;" points="105.9,58.8 105,58.8 105,52 101.5,50.3 101.8,49.5 105.9,51.4 		
			"/>
		<polygon style="clip-path:url(#SVGID_4_);fill:none;stroke:#009AFF;stroke-width:0.1;stroke-miterlimit:10;" points="105.9,58.8 
			105,58.8 105,52 101.5,50.3 101.8,49.5 105.9,51.4 		"/>
		<rect x="12.8" y="148.4" style="clip-path:url(#SVGID_4_);fill:#FFFFFF;" width="27.7" height="1.7"/>
		
			<rect x="12.8" y="148.4" style="clip-path:url(#SVGID_4_);fill:none;stroke:#009AFF;stroke-width:0.1;stroke-miterlimit:10;" width="27.7" height="1.7"/>
		<rect x="12.8" y="139.6" style="clip-path:url(#SVGID_4_);fill:#FFFFFF;" width="27.7" height="1.7"/>
		
			<rect x="12.8" y="139.6" style="clip-path:url(#SVGID_4_);fill:none;stroke:#009AFF;stroke-width:0.1;stroke-miterlimit:10;" width="27.7" height="1.7"/>
		<rect x="12.8" y="144" style="clip-path:url(#SVGID_4_);fill:#FFFFFF;" width="14.1" height="1.7"/>
		
			<rect x="12.8" y="144" style="clip-path:url(#SVGID_4_);fill:none;stroke:#009AFF;stroke-width:0.1;stroke-miterlimit:10;" width="14.1" height="1.7"/>
		<polygon style="clip-path:url(#SVGID_4_);fill:#FFFFFF;" points="45.2,148.4 71,148.4 71,150.1 45.2,150.1 44.9,150.1 43.4,150.1 
			43.4,139.6 45.2,139.6 45.2,148.2 		"/>
		<polygon style="clip-path:url(#SVGID_4_);fill:none;stroke:#009AFF;stroke-width:0.1;stroke-miterlimit:10;" points="45.2,148.4 
			71,148.4 71,150.1 45.2,150.1 44.9,150.1 43.4,150.1 43.4,139.6 45.2,139.6 45.2,148.2 		"/>
		<polygon style="clip-path:url(#SVGID_4_);fill:#FFFFFF;" points="100.1,145.7 74.2,145.7 74.2,139.6 101.9,139.6 101.9,141.3 
			75.9,141.3 75.9,144 101.9,144 101.9,150.1 74.2,150.1 74.2,148.4 100.1,148.4 		"/>
		<polygon style="clip-path:url(#SVGID_4_);fill:none;stroke:#009AFF;stroke-width:0.1;stroke-miterlimit:10;" points="100.1,145.7 
			74.2,145.7 74.2,139.6 101.9,139.6 101.9,141.3 75.9,141.3 75.9,144 101.9,144 101.9,150.1 74.2,150.1 74.2,148.4 100.1,148.4 		
			"/>
		<path style="clip-path:url(#SVGID_4_);fill:#FFFFFF;" d="M130.8,139.6L130.8,139.6h-24.2h-1.7v1.7v8.8h1.7v-4.4h24.2v4.4h1.7v-8.8
			v-1.7H130.8z M130.8,144.2h-24.2v-2.9h24.2V144.2z"/>
		<path style="clip-path:url(#SVGID_4_);fill:none;stroke:#009AFF;stroke-width:0.1;stroke-miterlimit:10;" d="M130.8,139.6
			L130.8,139.6h-24.2h-1.7v1.7v8.8h1.7v-4.4h24.2v4.4h1.7v-8.8v-1.7H130.8z M130.8,144.2h-24.2v-2.9h24.2V144.2z"/>
	</g>
</g>
</svg>
