<svg xmlns="http://www.w3.org/2000/svg" width="120.8" height="122.6" viewBox="0 0 120.8 122.6"><path fill="red" d="M108.5,100.6c-1.4-0.5-2.8-1-4.1-1.4l-1.3,4.8c1.7,0.5,3.5,1.1,5.3,1.9c0.3,0.1,0.7,0.2,1,0.2
        c0.8,0,1.5-0.4,2-1l3.5-4.9l-4-2.9L108.5,100.6z"/><path id="XMLID_99_" d="M119.4,89.5c-6.3-4.9-20.9-17.9-22.6-34.4c-1.6-16.3,10.2-29.5,15.6-34.6c1.4-1.3,1.5-3.6,0.3-5l-8.6-10
    c-1.2-1.4-3.3-1.7-4.9-0.6c-2.4,1.6-6.6,3.3-12.9,1.7c-6.6-1.7-11-4.3-13.3-5.9c-1.2-0.9-2.9-0.9-4.1-0.1C66.6,2.1,62.2,4.3,55,5
    c-6.9,0.7-11.5-0.4-14.1-1.5c-1.5-0.6-3.2-0.1-4.2,1.2c-1.7,2.1-4.8,5.3-10.6,8.1c-6.1,3-11.4,1.8-14.4,0.6C10,12.7,8,13.3,7.1,15
    L0.5,26.7c-0.9,1.6-0.5,3.7,1,4.7c5.4,3.9,17.3,14.3,18.9,30.4c1.6,16.7-8.3,33.3-12.5,39.5c-1,1.5-0.8,3.5,0.6,4.7l11,10.2
    c1.3,1.2,3.4,1.3,4.8,0.2c3.7-3,11.2-7.8,17.7-4.8c5.4,2.5,13.4,6.8,18.8,9.7c3.7,2,8.2,1.5,11.4-1.1c4.8-4,11.9-9.8,16.7-13.3
    c5.7-4.2,13.9-1.3,18.1,0.7c1.6,0.8,3.5,0.3,4.6-1.1l8.6-11.9C121.2,93,120.9,90.8,119.4,89.5z M107,98.9c-8.9-3.4-17-2.9-22.9,1.5
    c-5,3.7-12,9.4-17.1,13.6c-0.7,0.6-1.7,0.7-2.5,0.2c-5.7-3.1-13.7-7.3-19.3-9.9c-2.5-1.2-5.1-1.7-7.8-1.7c-4.8,0-10,1.8-15.2,5.3
    l-5.7-5.3c5.3-8.5,13.4-24.8,11.8-41.6c-1.6-16.7-12.3-28-19.1-33.7l3-5.4c5.7,1.4,11.8,0.7,17.3-2c5.3-2.6,9-5.5,11.4-8
    c3.5,1,8.4,1.6,14.8,1c6.8-0.7,11.6-2.4,15-4.2c3.1,1.9,7.6,4,13.5,5.6c5.7,1.5,11.3,1.2,16-0.9l3.7,4.3
    c-6.7,7.2-16.8,21.1-15.1,38.3c1.7,17,14.4,30.4,22.4,37.3L107,98.9z"/>
<path  fill="red" d="M173-80.6c-6.3-4.9-20.9-17.9-22.6-34.4c-1.6-16.3,10.2-29.5,15.6-34.6c1.4-1.3,1.5-3.6,0.3-5
    l-8.6-10c-1.2-1.4-3.3-1.7-4.9-0.6c-2.4,1.6-6.6,3.3-12.9,1.7c-6.6-1.7-11-4.3-13.3-5.9c-1.2-0.9-2.9-0.9-4.1-0.1
    c-2.3,1.5-6.7,3.7-13.9,4.4c-6.9,0.7-11.5-0.4-14.1-1.5c-1.5-0.6-3.2-0.1-4.2,1.2c-1.7,2.1-4.8,5.3-10.6,8.1
    c-6.1,3-11.4,1.8-14.4,0.6c-1.7-0.7-3.7-0.1-4.7,1.6l-6.6,11.7c-0.9,1.6-0.5,3.7,1,4.7c5.4,3.9,17.3,14.3,18.9,30.4
    c1.6,16.7-8.3,33.3-12.5,39.5c-1,1.5-0.8,3.5,0.6,4.7l11,10.2c1.3,1.2,3.4,1.3,4.8,0.2c3.7-3,11.2-7.8,17.7-4.8
    c5.4,2.5,13.4,6.8,18.8,9.7c3.7,2,8.2,1.5,11.4-1.1c4.8-4,11.9-9.8,16.7-13.3c5.7-4.2,13.9-1.3,18.1,0.7c1.6,0.8,3.5,0.3,4.6-1.1
    l8.6-11.9C174.9-77.2,174.6-79.4,173-80.6z"/></svg>