<svg xmlns="http://www.w3.org/2000/svg" width="120.8" height="122.6" viewBox="0 0 120.8 122.6">
    <path fill="red" d="M0.5,26.7L7.1,15c0.9-1.6,2.9-2.3,4.7-1.6c3.1,1.3,8.3,2.4,14.4-0.6c5.7-2.8,8.9-5.9,10.6-8.1   c1-1.3,2.7-1.8,4.2-1.2c2.6,1,7.2,2.2,14.1,1.5c7.2-0.7,11.6-2.9,13.9-4.4c1.2-0.8,2.9-0.8,4.1,0.1c2.4,1.7,6.7,4.2,13.3,5.9   c6.3,1.6,10.5,0,12.9-1.7c1.6-1.1,3.6-0.8,4.9,0.6l8.6,10c1.3,1.5,1.2,3.7-0.3,5c-5.4,5.1-17.2,18.3-15.6,34.6   c1.6,16.5,16.3,29.5,22.6,34.4c1.6,1.2,1.9,3.4,0.7,5l-8.6,11.9c-1,1.4-3,1.9-4.6,1.1c-4.2-2-12.3-4.9-18.1-0.7   c-4.8,3.6-11.9,9.3-16.7,13.3c-3.2,2.7-7.7,3.1-11.4,1.1c-5.5-3-13.4-7.2-18.8-9.7c-6.4-3-13.9,1.8-17.7,4.8   c-1.4,1.1-3.5,1.1-4.8-0.2l-11-10.2c-1.3-1.2-1.6-3.2-0.6-4.7c4.2-6.2,14.1-22.8,12.5-39.5C18.8,45.7,6.9,35.4,1.5,31.5   C0,30.4-0.4,28.3,0.5,26.7z"/>
</svg>